<?xml version="1.0" encoding="iso-8859-1"?>
<!-- Generator: Adobe Illustrator 18.0.0, SVG Export Plug-In . SVG Version: 6.00 Build 0)  -->
<!DOCTYPE svg PUBLIC "-//W3C//DTD SVG 1.1//EN" "http://www.w3.org/Graphics/SVG/1.1/DTD/svg11.dtd">
<svg version="1.1" id="Capa_1" xmlns="http://www.w3.org/2000/svg" xmlns:xlink="http://www.w3.org/1999/xlink" x="0px" y="0px"
	 viewBox="0 0 490.442 490.442" style="enable-background:new 0 0 490.442 490.442;" xml:space="preserve">
<g>
	<path d="M435.591,285.067c-12.367,0-23.994,4.816-32.738,13.561l-0.218,0.218c-0.003,0.003-0.007,0.006-0.011,0.009l-9.154,9.154
		c-0.001,0.001-0.001,0.002-0.002,0.003l-0.78,0.78L285.54,358.675c-0.45,0.209-0.86,0.496-1.211,0.848
		c-9.62,9.62-9.62,25.274,0,34.895c4.66,4.661,10.856,7.228,17.447,7.228c1.583,0,3.142-0.152,4.664-0.441
		c-1.479,7.763,0.777,16.103,6.773,22.099c4.661,4.661,10.857,7.228,17.448,7.228c1.583,0,3.142-0.152,4.664-0.441
		c-1.479,7.763,0.777,16.103,6.774,22.1c4.661,4.659,10.857,7.226,17.448,7.226c0.001,0,0,0,0.001,0
		c1.577,0,3.131-0.151,4.647-0.438c-0.288,1.517-0.439,3.071-0.439,4.649c0,6.591,2.567,12.786,7.227,17.445
		c4.811,4.811,11.129,7.216,17.449,7.216c6.318,0,12.636-2.404,17.446-7.213c0.333-0.333,0.608-0.719,0.815-1.143l51.637-105.825
		l10-10.002c8.745-8.744,13.561-20.37,13.561-32.737c0-12.367-4.815-23.993-13.56-32.737
		C459.585,289.883,447.958,285.067,435.591,285.067z M455.942,364.469l-53.455-53.455l3.144-3.144l53.454,53.456L455.942,364.469z
		 M301.776,393.145c-4.32,0-8.382-1.683-11.437-4.737c-6.139-6.139-6.303-16.024-0.491-22.362l85.559-39.832l-62.195,62.194
		C310.158,391.462,306.097,393.145,301.776,393.145z M330.661,422.03c-4.32,0-8.382-1.683-11.437-4.737
		c-6.307-6.307-6.307-16.568,0-22.875l76.202-76.201l8.972,8.972L418.3,341.09l-76.202,76.202
		C339.043,420.347,334.981,422.03,330.661,422.03z M359.546,450.913c-4.321,0-8.383-1.683-11.438-4.736
		c-6.307-6.307-6.307-16.568,0-22.875l76.202-76.201l22.874,22.874l-75.524,75.524l0,0l-0.678,0.678
		C367.927,449.232,363.866,450.913,359.546,450.913z M399.383,475.526c-6.337,5.836-16.243,5.682-22.391-0.467
		c-3.055-3.054-4.737-7.115-4.737-11.435c0-4.32,1.682-8.382,4.737-11.438l3.856-3.856l62.109-62.108L399.383,475.526z
		 M464.951,355.172l-53.166-53.168c6.714-5.465,15.031-8.438,23.806-8.438c10.096,0,19.588,3.932,26.728,11.071
		c7.139,7.139,11.07,16.631,11.07,26.728C473.389,340.141,470.415,348.458,464.951,355.172z"/>
	<path d="M56.745,410.595l-19.416,19.416c-1.66,1.659-1.66,4.351,0,6.01c0.83,0.83,1.917,1.245,3.005,1.245
		c1.088,0,2.175-0.415,3.005-1.245l19.416-19.416c1.66-1.659,1.66-4.351,0-6.01C61.095,408.935,58.405,408.935,56.745,410.595z"/>
	<path d="M111.233,356.108l-46.464,46.464c-1.66,1.659-1.66,4.351,0,6.01c0.83,0.83,1.918,1.245,3.005,1.245
		c1.087,0,2.175-0.415,3.005-1.245l46.464-46.464c1.66-1.659,1.66-4.351,0-6.01C115.584,354.448,112.894,354.447,111.233,356.108z"
		/>
	<path d="M459.951,30.486c-19.938-19.938-46.968-30.478-78.168-30.478c-42.511,0-86.582,19.69-120.914,54.022
		c-60.107,60.107-71.47,146.995-26.462,196.018l-88.045,88.044c-0.364,0.364-0.634,0.784-0.839,1.226l-9.859-9.858
		c-1.165-1.166-2.898-1.551-4.448-0.993l-18.42,6.647c-0.031,0.011-0.06,0.027-0.091,0.039c-0.056,0.023-0.11,0.048-0.165,0.072
		c-0.195,0.085-0.382,0.183-0.56,0.295c-0.035,0.021-0.07,0.039-0.104,0.061c-0.208,0.141-0.4,0.301-0.58,0.475
		c-0.02,0.019-0.043,0.031-0.063,0.051L1.245,446.095C0.448,446.892,0,447.973,0,449.1c0,1.127,0.448,2.208,1.245,3.005
		l37.084,37.084c0.83,0.83,1.917,1.245,3.005,1.245c1.087,0,2.175-0.415,3.005-1.245l109.989-109.987
		c0.02-0.02,0.033-0.043,0.052-0.064c0.17-0.177,0.329-0.364,0.467-0.569c0.015-0.021,0.025-0.045,0.04-0.067
		c0.121-0.187,0.224-0.384,0.315-0.59c0.023-0.052,0.047-0.104,0.068-0.156c0.016-0.039,0.036-0.076,0.05-0.116l6.648-18.422
		c0.559-1.55,0.172-3.283-0.993-4.447l-9.829-9.828c0.442-0.204,0.862-0.475,1.226-0.839l88.042-88.041
		c19.602,18.021,45.458,27.524,75.077,27.524c42.511,0,86.582-19.689,120.914-54.021c29.598-29.598,48.411-66.498,52.973-103.902
		C493.986,87.871,483.536,54.071,459.951,30.486z M41.334,480.173L10.26,449.1l103.979-103.977l31.073,31.073L41.334,480.173z
		 M149.596,368.459l-27.62-27.62l9.587-3.46l21.493,21.492L149.596,368.459z M480.94,124.634
		c-4.333,35.528-22.284,70.659-50.546,98.922c-32.749,32.748-74.629,51.53-114.903,51.53c-28.897,0-53.848-9.677-72.156-27.985
		c-45.081-45.082-34.519-128.997,23.544-187.061c32.75-32.749,74.63-51.532,114.903-51.532c28.896,0,53.848,9.679,72.157,27.987
		C475.637,58.193,485.225,89.494,480.94,124.634z"/>
	<path d="M474.206,104.079c-1.671-23.367-10.444-44.849-26.723-61.127c-17.737-17.737-41.775-27.112-69.517-27.112
		c-37.746,0-76.871,17.476-107.341,47.946c-28.114,28.114-44.31,64.013-47.405,96.949c-0.499,5.888-0.509,12.831-0.167,18.55
		c1.63,23.454,10.404,45.021,26.731,61.352c0.002,0.002,0.003,0.005,0.005,0.007c0.003,0.002,0.005,0.004,0.007,0.006
		c15.97,15.967,38.049,25.193,62.338,26.865c2.365,0.143,4.749,0.24,7.171,0.24c37.747,0,76.872-17.477,107.342-47.947
		c8.2-8.199,15.369-16.964,21.5-26.079c0.067-0.093,0.132-0.186,0.191-0.283c14.724-21.985,23.372-46.01,25.592-69.166
		C474.41,118.534,474.528,109.665,474.206,104.079z M444.007,184.524l-23.637-23.637l40.622-40.623l4.421,4.422
		C463.293,144.617,456.066,165.274,444.007,184.524z M331.551,258.599l-4.447-4.446l40.622-40.623l23.668,23.669
		C372.517,249.067,351.979,256.459,331.551,258.599z M258.885,237.56l19.803-19.803l36.396,36.396l-4.732,4.732
		C290.245,257.232,272.654,249.96,258.885,237.56z M231.575,180.059l4.707-4.707l36.395,36.395l-19.794,19.795
		C240.203,217.436,233.195,199.526,231.575,180.059z M253.267,99.071l23.638,23.638l-40.623,40.623l-4.42-4.421
		C233.981,138.979,241.208,118.322,253.267,99.071z M365.725,24.996l4.446,4.445l-40.622,40.623l-23.669-23.669
		C324.758,34.528,345.296,27.135,365.725,24.996z M438.39,46.035l-19.803,19.803l-36.396-36.396l4.732-4.73
		C407.029,26.364,424.62,33.635,438.39,46.035z M465.7,103.535l-4.708,4.709l-36.395-36.396l19.794-19.794
		C457.072,66.16,464.08,84.07,465.7,103.535z M376.181,35.452l36.396,36.395l-40.623,40.623l-36.396-36.396L376.181,35.452z
		 M365.944,118.481l-40.623,40.623l-36.396-36.396l40.623-40.623L365.944,118.481z M319.31,165.114l-40.622,40.623l-36.396-36.395
		l40.623-40.622L319.31,165.114z M321.094,248.142l-36.396-36.396l40.623-40.622l36.396,36.396L321.094,248.142z M331.331,165.114
		l40.623-40.623l36.396,36.397l-40.623,40.623L331.331,165.114z M377.964,118.481l40.623-40.622l36.395,36.396l-40.622,40.622
		L377.964,118.481z M276.636,69.796c6.926-6.926,14.317-13.135,22.038-18.585l24.864,24.863l-40.623,40.623l-24.85-24.85
		C263.469,84.172,269.661,76.772,276.636,69.796z M420.638,213.798c-6.926,6.926-14.317,13.134-22.037,18.585l-24.864-24.863
		l40.623-40.623l24.849,24.85C433.806,199.422,427.613,206.823,420.638,213.798z"/>
</g>
<g>
</g>
<g>
</g>
<g>
</g>
<g>
</g>
<g>
</g>
<g>
</g>
<g>
</g>
<g>
</g>
<g>
</g>
<g>
</g>
<g>
</g>
<g>
</g>
<g>
</g>
<g>
</g>
<g>
</g>
</svg>
