<?xml version="1.0" encoding="iso-8859-1"?>
<!-- Generator: Adobe Illustrator 18.0.0, SVG Export Plug-In . SVG Version: 6.00 Build 0)  -->
<!DOCTYPE svg PUBLIC "-//W3C//DTD SVG 1.1//EN" "http://www.w3.org/Graphics/SVG/1.1/DTD/svg11.dtd">
<svg version="1.1" id="Capa_1" xmlns="http://www.w3.org/2000/svg" xmlns:xlink="http://www.w3.org/1999/xlink" x="0px" y="0px"
	 viewBox="0 0 493.422 493.422" style="enable-background:new 0 0 493.422 493.422;" xml:space="preserve">
<g id="XMLID_257_">
	<path id="XMLID_262_" d="M87.551,149.2c17.444,3.914,34.771-7.068,38.685-24.529c3.896-17.461-7.086-34.778-24.529-38.684
		c-17.461-3.906-34.787,7.069-38.684,24.529C59.108,127.978,70.091,145.294,87.551,149.2z"/>
	<path id="XMLID_259_" d="M208.292,95.739c-16.094-3.601-32.07,6.537-35.664,22.623c-1.028,4.598-0.826,9.144,0.204,13.437
		c-5.568-2.37-12.132-2.007-17.243,1.949l-38.497,29.614l-27.55-3.406c-3.238-2.996-7.203-5.281-11.826-6.317
		c-15.049-3.35-29.286,7.725-30.62,18.463c0,0.042,0.017,0.076,0.017,0.118c-0.812,2.922-11.344,51.089-16.006,72.454
		c-1.456,6.673-1.864,13.524-1.208,20.323c1.353,14.01,3.668,37.871,4.141,41.966l-24.85,61.56
		c-3.559,8.84,0.708,18.912,9.564,22.48c8.723,3.558,18.879-0.624,22.489-9.548l10.004-24.774c0.051,5.92,2.851,11.681,8.351,14.853
		c8.181,4.749,18.793,1.983,23.601-6.309l29.81-51.597c3.357-5.829,3.038-13.067-0.827-18.574L82.17,252.295l12.737-56.87
		c1.688,0.211,25.406,3.23,27.094,3.23c3.795,0,7.508-1.249,10.527-3.584l44.115-33.944c4.234-3.254,6.31-8.08,6.512-13.023
		c3.44,2.776,7.474,4.91,12.079,5.939c16.112,3.611,32.104-6.519,35.697-22.623C234.542,115.325,224.386,99.349,208.292,95.739z
		 M58.249,339.329l9.48-23.51c1.08-2.666,1.467-5.566,1.13-8.434l-1.906-16.634l10.611,15.131L58.249,339.329z"/>
	<path id="XMLID_258_" d="M468.213,0c-9.548,0-17.274,7.735-17.274,17.275V66.95L438.657,56.54
		c-0.39-9.203-7.83-16.592-17.141-16.592H321.105c-9.551,0-17.275,7.735-17.275,17.275c0,7.71,5.129,14.002,12.096,16.229
		l13.952,84.504c0.775,4.706,5.263,7.903,9.919,7.111c4.707-0.776,7.895-5.223,7.12-9.928l-13.311-80.64h75.408l-13.311,80.64
		c-0.774,4.706,2.413,9.152,7.12,9.928c0.473,0.085,0.943,0.118,1.418,0.118c4.148,0,7.81-3.002,8.503-7.229l13.952-84.504
		c1.213-0.388,2.293-0.911,3.373-1.543l17.444,14.778c1.026,0.869,2.21,1.358,3.425,1.67v387.788c0,9.54,7.727,17.275,17.274,17.275
		c9.548,0,17.274-7.735,17.274-17.275V17.275C485.487,7.735,477.761,0,468.213,0z"/>
</g>
<g>
</g>
<g>
</g>
<g>
</g>
<g>
</g>
<g>
</g>
<g>
</g>
<g>
</g>
<g>
</g>
<g>
</g>
<g>
</g>
<g>
</g>
<g>
</g>
<g>
</g>
<g>
</g>
<g>
</g>
</svg>
