<?xml version="1.0" encoding="utf-8"?>
<!-- Uploaded to SVGRepo https://www.svgrepo.com -->
<svg version="1.2" baseProfile="tiny" id="Layer_1" xmlns="http://www.w3.org/2000/svg" xmlns:xlink="http://www.w3.org/1999/xlink"
	 x="0px" y="0px" viewBox="0 0 256 256" xml:space="preserve">
<g id="XMLID_12_">
	<path id="XMLID_16_" d="M163.8,68.1c12.4,0,22.5-10.1,22.5-22.5c0-12.4-10-22.5-22.5-22.5c-12.4,0-22.5,10.1-22.5,22.5
		C141.3,58.1,151.4,68.1,163.8,68.1z"/>
	<path id="XMLID_15_" d="M251.7,229.3c-5.3,0-10.5-1.2-15-3.2c-4.7-2.2-9.9-3.4-15.4-3.4c-5.4,0-10.7,1.3-15.3,3.4
		c-4.6,2-9.7,3.2-15,3.2s-10.4-1.2-14.9-3.2c-4.7-2.2-9.9-3.4-15.4-3.4c-5.5,0-10.8,1.3-15.4,3.4c-4.5,2-9.6,3.2-14.9,3.2
		c-5.3,0-10.4-1.2-15-3.2c-4.7-2.2-9.8-3.4-15.3-3.4c-5.5,0-10.8,1.3-15.4,3.4c-4.5,2-9.6,3.2-14.9,3.2c-5.3,0-10.4-1.2-15-3.2
		c-4.7-2.2-9.9-3.4-15.3-3.4c-5.5,0-10.8,1.3-15.4,3.4c-4.5,2-9.6,3.2-14.9,3.2v-22.4c5.3,0,10.4-1.2,14.9-3.2
		c4.7-2.2,9.9-3.4,15.4-3.4c5.4,0,10.7,1.3,15.3,3.4c4.6,2.1,9.7,3.2,15,3.2c5.3,0,10.4-1.2,14.9-3.2c4.7-2.2,9.9-3.4,15.4-3.4
		c5.5,0,10.7,1.3,15.3,3.4c4.6,2.1,9.7,3.2,15,3.2c5.3,0,10.4-1.2,14.9-3.2c4.7-2.2,9.9-3.4,15.4-3.4c5.5,0,10.8,1.3,15.4,3.4
		c4.5,2.1,9.6,3.2,14.9,3.2s10.4-1.2,15-3.2c4.7-2.2,9.9-3.4,15.3-3.4c5.5,0,10.8,1.3,15.4,3.4c4.5,2.1,9.7,3.2,15,3.2V229.3z"/>
	<path id="XMLID_14_" d="M24.6,184.7c4.5-2.1,9.5-3.2,14.9-3.2c5.4,0,10.7,1.3,15.3,3.4c4.6,2,9.7,3.2,15,3.2
		c5.3,0,10.4-1.2,14.9-3.2c4.7-2.2,9.9-3.4,15.4-3.4c5.5,0,10.7,1.3,15.3,3.4c4.6,2,9.7,3.2,15,3.2c5.3,0,10.4-1.2,14.9-3.2
		c3-1.4,6-2.3,9.3-2.9l38.8-44.3h-49.9l20.7-35.5l45.3,24.8c15,8.5,26-11.1,11-19.5l-64.9-35.9c-23.9-13.3-33.9,8.8-33.9,8.8
		l-33.5,56.5L0,136.8C2.8,153,17.3,174.6,24.6,184.7z"/>
	<path id="XMLID_13_" d="M166.3,181.9c3.4,0.5,6.8,1.6,9.8,3c4.5,2,9.6,3.2,14.9,3.2s10.4-1.2,15-3.2c4.7-2.2,9.9-3.4,15.3-3.4
		c5.5,0,10.8,1.3,15.4,3.4c4.5,2,9.7,3.2,15,3.2l-0.1-50.4l-46.8-0.1L166.3,181.9z"/>
</g>
</svg>
