<?xml version="1.0" encoding="iso-8859-1"?>
<!-- Generator: Adobe Illustrator 18.1.1, SVG Export Plug-In . SVG Version: 6.00 Build 0)  -->
<svg version="1.1" id="Capa_1" xmlns="http://www.w3.org/2000/svg" xmlns:xlink="http://www.w3.org/1999/xlink" x="0px" y="0px"
	 viewBox="0 0 333.045 333.045" style="enable-background:new 0 0 333.045 333.045;" xml:space="preserve">
<path d="M192.438,333.045h-51.696c-0.061,0-0.12-0.001-0.181-0.002H81.308c-4.418,0-8-3.582-8-8s3.582-8,8-8h51.434v-35.294
	c-33.039-8.95-61.379-30.861-78.433-61.673H34.245c-4.418,0-8-3.582-8-8s3.582-8,8-8h99.979c4.418,0,8,3.582,8,8s-3.582,8-8,8
	h-1.646c10.283,5.651,21.883,8.646,34.012,8.646c36.344,0,66.382-27.521,70.369-62.817h-3.408c-4.418,0-8-3.582-8-8s3.582-8,8-8
	h3.408c-3.987-35.295-34.025-62.816-70.369-62.816c-6.703,0-13.31,0.93-19.675,2.768l-1.729,7.819l7.229,1.632
	c4.311,0.973,7.016,5.255,6.043,9.564c-0.973,4.312-5.259,7.016-9.564,6.043l-7.163-1.616l-5.137,23.225l7.062,1.594
	c4.311,0.973,7.016,5.255,6.043,9.564c-0.973,4.312-5.257,7.014-9.564,6.043l-14.676-3.312c-0.052-0.011-0.104-0.022-0.157-0.034
	l-50.429-11.38c-0.059-0.013-0.116-0.026-0.174-0.041l-14.66-3.309c-4.311-0.973-7.016-5.255-6.043-9.564
	c0.973-4.312,5.262-7.014,9.564-6.043l6.997,1.579l5.137-23.226l-6.897-1.557c-4.311-0.973-7.016-5.255-6.043-9.564
	c0.973-4.311,5.252-7.016,9.564-6.043l6.832,1.542L96.069,6.273c0.46-2.077,1.728-3.887,3.524-5.026
	c1.797-1.141,3.974-1.519,6.049-1.05l50.427,11.381c4.296,0.97,7.001,5.23,6.05,9.531l-1.908,8.629
	c2.125-0.104,4.254-0.157,6.379-0.157c68.073,0,123.938,53.278,128.081,120.325h4.13c4.418,0,8,3.582,8,8s-3.582,8-8,8h-4.13
	c-3.431,55.512-42.318,101.585-94.232,115.797v35.341h51.436c4.418,0,8,3.582,8,8s-3.582,8-8,8h-59.255
	C192.558,333.044,192.499,333.045,192.438,333.045z M148.742,317.043h35.696v-30.812h-35.696V317.043z M73.007,220.076
	c20.69,31.236,55.458,50.155,93.582,50.155c59.25,0,107.932-46.105,112.045-104.326h-25.592
	c-4.051,44.136-41.278,78.817-86.453,78.817c-22.919,0-44.302-8.726-60.595-24.646H73.007z M253.043,149.905h25.592
	C274.521,91.686,225.839,45.58,166.589,45.58c-3.329,0-6.669,0.146-9.979,0.438l-5.864,26.515
	c5.201-0.959,10.499-1.443,15.844-1.443C211.764,71.089,248.992,105.771,253.043,149.905z M86.166,125.144l34.82,7.857l5.137-23.225
	l-34.82-7.858L86.166,125.144z M94.757,86.295l34.82,7.858l12.574-56.855c0.037-0.211,0.084-0.42,0.138-0.625l2.486-11.242
	l-34.819-7.858L94.757,86.295z"/>
<g>
</g>
<g>
</g>
<g>
</g>
<g>
</g>
<g>
</g>
<g>
</g>
<g>
</g>
<g>
</g>
<g>
</g>
<g>
</g>
<g>
</g>
<g>
</g>
<g>
</g>
<g>
</g>
<g>
</g>
</svg>
